<?xml version="1.0" encoding="UTF-8"?>
<!-- Generator: Adobe Illustrator 28.0.0, SVG Export Plug-In . SVG Version: 6.00 Build 0)  -->
<svg xmlns="http://www.w3.org/2000/svg" xmlns:xlink="http://www.w3.org/1999/xlink" version="1.1" id="Groupe_31" x="0px" y="0px" viewBox="0 0 166.7 44" style="enable-background:new 0 0 166.7 44;" xml:space="preserve">
<style type="text/css">
	.st0{fill:#212B59;}
	.st1{fill:#C62385;}
</style>
<g id="Groupe_32">
	<path id="Tracé_104" class="st0" d="M90.7,37.6c-2-0.8-3.3-2.7-3.3-4.8v-2.1l0,0V0h-6.1v30.6l0,0v2.1c0,6.2,5,11.2,11.2,11.3h3.3   C93.5,42.5,91.7,40.2,90.7,37.6"></path>
	<path id="Tracé_105" class="st0" d="M98.5,32.5c0.3,4.1,3.9,6.4,7.4,6.3c2.5,0.1,4.9-1.2,6.1-3.4h6.3c-1.1,2.6-2.8,4.8-5.1,6.4   c-2.1,1.5-4.7,2.3-7.3,2.2c-7.5,0-13.5-6.1-13.5-13.6c0-7.4,6-13.4,13.4-13.5c3.6-0.1,7,1.3,9.5,3.9c3,3.1,4.4,7.4,3.8,11.6   L98.5,32.5z M113,27.8c-0.6-3.5-3.7-5.9-7.2-5.8c-4.5,0-7,3.2-7.2,5.8H113z"></path>
	<path id="Tracé_106" class="st0" d="M6.4,32.5c0.3,4.1,3.9,6.4,7.4,6.3c2.5,0.1,4.9-1.2,6.1-3.4h6.3c-1.1,2.6-2.8,4.8-5.1,6.4   c-2.1,1.5-4.7,2.3-7.3,2.2C6.3,43.9,0.3,37.8,0.4,30.3C0.5,23,6.4,17,13.7,16.9c3.6-0.1,7,1.3,9.5,3.9c3,3.1,4.4,7.4,3.8,11.6   L6.4,32.5z M21,27.8c-0.6-3.5-3.7-5.9-7.2-5.8c-4.5,0-7,3.2-7.2,5.8H21z"></path>
	<path id="Tracé_107" class="st0" d="M64.1,17c-7.3-0.2-13.4,5.5-13.6,12.8c0,0.2,0,0.4,0,0.6v0c0,1.2,0.2,2.3,0.4,3.5h-0.1   c-1.2,2.7-3.9,4.5-6.9,4.4c-4.3,0-7.5-3.2-7.5-7.8c0-2.1,0.7-4.1,2.1-5.7c1.4-1.5,3.4-2.3,5.4-2.2c1.4,0,2.7,0.4,3.9,1.1   c0.8-1.8,1.9-3.3,3.3-4.6c-2.2-1.4-4.8-2.1-7.5-2.1c-7.5,0.2-13.4,6.4-13.2,13.8c0.2,7.5,6.4,13.4,13.8,13.2   c3.7-0.1,7.2-1.7,9.6-4.4c5,5.6,13.6,6.2,19.2,1.2s6.2-13.6,1.2-19.2C71.7,18.6,68,17,64.1,17 M64.1,38.2c-4.2,0-7.6-3.4-7.6-7.5   c0-0.1,0-0.1,0-0.2v0c0.1-4.2,3.6-7.4,7.8-7.3c4.2,0.1,7.4,3.6,7.3,7.8C71.5,35,68.1,38.2,64.1,38.2"></path>
	<path id="Tracé_134" class="st0" d="M166.7,10h-26v6h10v27.8h6.1V16h10L166.7,10z"></path>
	<path id="Tracé_135" class="st0" d="M136.9,30.5v-1.4l0,0v-8h-6.1v8l0,0v1.4c0,0.1,0,0.1,0,0.2v0.4h0c0.3,7.2,6.3,12.9,13.5,12.9   v-6.1C140.2,37.9,136.9,34.6,136.9,30.5"></path>
	<rect id="Rectangle_17" x="130.8" y="10" class="st1" width="6.1" height="7.5"></rect>
	<path id="Tracé_136" class="st0" d="M5.3,13.5H0V7.4h5.3c4,0,7.3-3.3,7.3-7.3h6.1C18.7,7.5,12.7,13.5,5.3,13.5"></path>
</g>
</svg>
